<?xml version="1.0" encoding="utf-8"?>
<!-- Generator: Adobe Illustrator 19.1.0, SVG Export Plug-In . SVG Version: 6.00 Build 0)  -->
<svg version="1.1" id="Ebene_1" xmlns="http://www.w3.org/2000/svg" xmlns:xlink="http://www.w3.org/1999/xlink" x="0px" y="0px"
	 viewBox="0 0 419.5 419.5" style="enable-background:new 0 0 419.5 419.5;" xml:space="preserve">
<style type="text/css">
	.st0{fill:#3D5C73;}
	.st1{fill-rule:evenodd;clip-rule:evenodd;fill:#FFFFFF;}
</style>
<path class="st0" d="M335.6,419.5H83.9C37.6,419.5,0,382,0,335.6V83.9C0,37.6,37.6,0,83.9,0h251.7c46.3,0,83.9,37.6,83.9,83.9v251.7
	C419.5,382,382,419.5,335.6,419.5z"/>
<path id="XMLID_109_" class="st1" d="M186.4,286.4c5.6,26.2-8.7,43.7-25.6,55.4c-25.2-17.4-37.8-47.3-41.8-80.8
	c-4.5-38,6.8-81.5,21.7-112.4c19.4-40.5,63.6-88.5,71.1-85.2c2.6,1.1,1.6,8.4,1.3,11.4c-6.1,53.2,62.6,94.7,84.8,144
	c0.1,0.3,0.2,0.5,0.4,0.8l0,0l0,0c5.7,12.5,8.9,26.5,8.9,41.3c0,46.9-32.2,86.1-75,95.2C229.3,305.9,172.7,222.6,186.4,286.4z"/>
</svg>
